<svg width="109" height="76" viewBox="0 0 109 76" fill="none" xmlns="http://www.w3.org/2000/svg">
<path d="M19.5 3H13.9497C13.0215 3 12.1312 3.36875 11.4748 4.02513L10.0251 5.47487C9.36871 6.13125 8.99996 7.02149 8.99996 7.94975V29.5503C8.99996 30.4785 8.63121 31.3687 7.97483 32.0251L4.47483 35.5251C3.108 36.892 3.108 39.108 4.47483 40.4749L7.97484 43.9749C8.63121 44.6313 8.99996 45.5215 8.99996 46.4497V68.0503C8.99996 68.9785 9.36871 69.8688 10.0251 70.5251L11.4748 71.9749C12.1312 72.6312 13.0215 73 13.9497 73H19.5M89.5 3H95.0502C95.9785 3 96.8687 3.36875 97.5251 4.02513L98.9748 5.47487C99.6312 6.13125 100 7.02149 100 7.94975V29.5503C100 30.4785 100.369 31.3687 101.025 32.0251L104.525 35.5251C105.892 36.892 105.892 39.108 104.525 40.4749L101.025 43.9749C100.369 44.6313 100 45.5215 100 46.4497V68.0503C100 68.9785 99.6312 69.8688 98.9748 70.5251L97.5251 71.9749C96.8687 72.6312 95.9785 73 95.0502 73H89.5M47.5 52C44.4708 50.4854 42.0146 48.0292 40.5 45C38.2967 40.5934 38.2967 35.4066 40.5 31C42.0146 27.9708 44.4708 25.5146 47.5 24C51.9066 21.7967 57.0934 21.7967 61.5 24C64.5291 25.5146 66.9854 27.9708 68.5 31C70.7033 35.4066 70.7033 40.5934 68.5 45C66.9854 48.0292 64.5291 50.4854 61.5 52C57.0934 54.2033 51.9066 54.2033 47.5 52ZM47.9375 69.4999V67.3748C47.9375 66.1188 47.2645 64.9591 46.1739 64.3359L42.3913 62.1744C41.1225 61.4494 39.5368 61.589 38.4142 62.5245L36.323 64.2671C34.8715 65.4768 32.7218 65.3159 31.4665 63.9036L27.1612 59.0602C25.93 57.6752 25.9919 55.5705 27.3023 54.2601L28.6537 52.9087C29.7189 51.8434 29.983 50.216 29.3093 48.8686L28.1236 46.4972C27.5307 45.3114 26.3188 44.5624 24.9931 44.5624H23C21.067 44.5624 19.5 42.9954 19.5 41.0624V34.9375C19.5 33.0045 21.067 31.4375 23 31.4375H24.9931C26.3188 31.4375 27.5307 30.6885 28.1236 29.5027L29.3093 27.1313C29.983 25.7839 29.7189 24.1565 28.6537 23.0912L27.3023 21.7398C25.9919 20.4294 25.93 18.3247 27.1612 16.9397L31.4665 12.0963C32.7218 10.684 34.8715 10.5231 36.323 11.7328L38.4142 13.4754C39.5368 14.4109 41.1225 14.5505 42.3913 13.8255L46.1739 11.664C47.2645 11.0408 47.9375 9.88112 47.9375 8.62512V6.5C47.9375 4.567 49.5045 3 51.4375 3H57.5625C59.4955 3 61.0625 4.567 61.0625 6.5V8.62512C61.0625 9.88112 61.7355 11.0408 62.826 11.664L66.6086 13.8255C67.8774 14.5505 69.4631 14.4109 70.5857 13.4754L72.6769 11.7328C74.1285 10.5231 76.2781 10.684 77.5335 12.0963L81.8387 16.9397C83.0699 18.3247 83.008 20.4294 81.6976 21.7398L80.3463 23.0912C79.281 24.1565 79.0169 25.7839 79.6906 27.1313L80.8763 29.5027C81.4692 30.6885 82.6811 31.4375 84.0068 31.4375H86C87.933 31.4375 89.5 33.0045 89.5 34.9375V41.0624C89.5 42.9954 87.933 44.5624 86 44.5624H84.0068C82.6811 44.5624 81.4692 45.3114 80.8763 46.4972L79.6906 48.8686C79.0169 50.216 79.281 51.8434 80.3463 52.9087L81.6976 54.2601C83.008 55.5705 83.0699 57.6752 81.8387 59.0602L77.5335 63.9036C76.2781 65.3159 74.1285 65.4768 72.6769 64.2671L70.5857 62.5245C69.4631 61.589 67.8774 61.4494 66.6086 62.1744L62.826 64.3359C61.7355 64.9591 61.0625 66.1188 61.0625 67.3748V69.4999C61.0625 71.4329 59.4955 72.9999 57.5625 72.9999H51.4375C49.5045 72.9999 47.9375 71.4329 47.9375 69.4999Z" stroke="#5783EC" stroke-width="5"/>
</svg>
