<svg width="24" height="24" viewBox="0 0 24 24" fill="none" xmlns="http://www.w3.org/2000/svg">
<path d="M11.9438 0C5.35797 0 0 5.3832 0 12C0 18.6168 5.35797 24 11.9438 24C18.5295 24 23.8875 18.6168 23.8875 12C23.8875 5.3832 18.5295 0 11.9438 0ZM11.9438 21.6C6.67536 21.6 2.38875 17.2932 2.38875 12C2.38875 6.7068 6.67536 2.4 11.9438 2.4C17.2121 2.4 21.4988 6.7068 21.4988 12C21.4988 17.2932 17.2121 21.6 11.9438 21.6Z" fill="white"/>
<path d="M9.55391 13.9046L6.80804 11.1506L5.12158 12.8498L9.5563 17.2958L17.5658 9.24856L15.8769 7.55176L9.55391 13.9046Z" fill="white"/>
</svg>
