<svg width="59" height="59" viewBox="0 0 59 59" fill="none" xmlns="http://www.w3.org/2000/svg">
<path d="M21.1574 42.0139L29.5 33.6713L37.8426 42.0139L42.0139 37.8426L33.6713 29.5L42.0139 21.1574L37.8426 16.9861L29.5 25.3287L21.1574 16.9861L16.9861 21.1574L25.3287 29.5L16.9861 37.8426L21.1574 42.0139Z" fill="white"/>
<path d="M29.5 59C45.7663 59 59 45.7663 59 29.5C59 13.2337 45.7663 0 29.5 0C13.2337 0 0 13.2337 0 29.5C0 45.7663 13.2337 59 29.5 59ZM29.5 5.9C42.5125 5.9 53.1 16.4876 53.1 29.5C53.1 42.5125 42.5125 53.1 29.5 53.1C16.4876 53.1 5.9 42.5125 5.9 29.5C5.9 16.4876 16.4876 5.9 29.5 5.9Z" fill="white"/>
</svg>
