<svg width="25" height="27" viewBox="0 0 25 27" fill="none" xmlns="http://www.w3.org/2000/svg">
<path d="M22.2222 0H4.16667C2.49167 0 0 1.07865 0 4.05V22.95C0 25.9214 2.49167 27 4.16667 27H25V24.3H4.18333C3.54167 24.2838 2.77778 24.0381 2.77778 22.95C2.77778 22.8137 2.79028 22.6922 2.81111 22.5814C2.96667 21.8039 3.62222 21.6135 4.18333 21.6H25V2.7C25 1.98392 24.7073 1.29716 24.1864 0.790812C23.6655 0.284463 22.9589 0 22.2222 0ZM22.2222 12.15L19.4444 10.8L16.6667 12.15V2.7H22.2222V12.15Z" fill="white"/>
</svg>
