<svg width="26" height="26" viewBox="0 0 26 26" fill="none" xmlns="http://www.w3.org/2000/svg">
<path d="M12.7471 20.3952C17.8459 20.3952 19.1206 15.2964 19.1206 15.2964H6.37354C6.37354 15.2964 7.64824 20.3952 12.7471 20.3952Z" fill="white"/>
<path d="M12.7471 0C5.71834 0 0 5.71834 0 12.7471C0 19.7758 5.71834 25.4941 12.7471 25.4941C19.7758 25.4941 25.4941 19.7758 25.4941 12.7471C25.4941 5.71834 19.7758 0 12.7471 0ZM12.7471 22.9447C7.12434 22.9447 2.54941 18.3698 2.54941 12.7471C2.54941 7.12434 7.12434 2.54941 12.7471 2.54941C18.3698 2.54941 22.9447 7.12434 22.9447 12.7471C22.9447 18.3698 18.3698 22.9447 12.7471 22.9447Z" fill="white"/>
<path d="M14.0219 12.747L16.5713 12.7623C16.5866 12.1734 16.8186 11.4723 17.846 11.4723C18.8734 11.4723 19.1054 12.1734 19.1207 12.747H21.6701C21.6701 11.2097 20.6516 8.92285 17.846 8.92285C15.0404 8.92285 14.0219 11.2097 14.0219 12.747ZM7.64834 11.4723C8.67575 11.4723 8.90775 12.1734 8.92305 12.747H11.4725C11.4725 11.2097 10.454 8.92285 7.64834 8.92285C4.84271 8.92285 3.82422 11.2097 3.82422 12.747L6.37363 12.7623C6.38893 12.1734 6.62093 11.4723 7.64834 11.4723Z" fill="white"/>
</svg>
