<svg width="24" height="24" viewBox="0 0 24 24" fill="none" xmlns="http://www.w3.org/2000/svg">
<path d="M12.0006 5C10.6749 5.00154 9.40395 5.48559 8.46651 6.34599C7.52907 7.20638 7.00168 8.37289 7 9.58967H9.54227C9.54227 8.34483 10.6456 7.33333 12.0006 7.33333C13.3557 7.33333 14.459 8.34483 14.459 9.58967C14.459 10.2873 13.8476 10.7937 12.9133 11.4867C12.6081 11.7061 12.3149 11.9393 12.035 12.1855C10.7664 13.3487 10.7295 14.5842 10.7295 14.7218V15.5H13.2718L13.2705 14.7615C13.2718 14.7428 13.3124 14.3112 13.8311 13.8363C14.0217 13.6613 14.262 13.4863 14.5111 13.302C15.5013 12.5658 17 11.454 17 9.58967C16.999 8.3729 16.472 7.20621 15.5347 6.34572C14.5974 5.48522 13.3264 5.00124 12.0006 5ZM10.7295 16.6667H13.2718V19H10.7295V16.6667Z" fill="white"/>
<path d="M12 0C5.3832 0 0 5.3832 0 12C0 18.6168 5.3832 24 12 24C18.6168 24 24 18.6168 24 12C24 5.3832 18.6168 0 12 0ZM12 21.6C6.7068 21.6 2.4 17.2932 2.4 12C2.4 6.7068 6.7068 2.4 12 2.4C17.2932 2.4 21.6 6.7068 21.6 12C21.6 17.2932 17.2932 21.6 12 21.6Z" fill="white"/>
</svg>
