<svg width="514" height="333" viewBox="0 0 514 333" fill="none" xmlns="http://www.w3.org/2000/svg">
<path d="M0 18C0 8.05888 8.05887 0 18 0H496C505.941 0 514 8.05888 514 18V113H0V18Z" fill="#333333"/>
<path d="M0 315C0 324.941 8.05887 333 18 333H496C505.941 333 514 324.941 514 315V113H0V315Z" fill="#1E1E1E"/>
<path d="M0 18.0282C0 8.07149 8.07149 0 18.0282 0H495.972C505.929 0 514 8.07149 514 18.0282V27H0V18.0282Z" fill="#3C3C3C"/>
<path opacity="0.4" d="M501.494 9.97527L499.627 8.27344L494.494 12.9535L489.36 8.27344L487.494 9.97527L492.627 14.6553L487.494 19.3354L489.36 21.0372L494.494 16.3572L499.627 21.0372L501.494 19.3354L496.36 14.6553L501.494 9.97527Z" fill="#9A9A9A"/>
<rect opacity="0.4" x="27.1245" y="11" width="127.485" height="6" fill="#9A9A9A"/>
<rect opacity="0.4" x="161.391" y="11" width="35.2618" height="6" fill="#9A9A9A"/>
<rect opacity="0.4" x="203.434" y="11" width="16.2747" height="6" fill="#9A9A9A"/>
</svg>
