<svg width="109" height="76" viewBox="0 0 109 76" fill="none" xmlns="http://www.w3.org/2000/svg">
<path d="M47.5 24C44.4708 25.5146 42.0146 27.9708 40.5 31V31C38.2967 35.4066 38.2967 40.5934 40.5 45V45C42.0146 48.0292 44.4708 50.4854 47.5 52V52C51.9066 54.2033 57.0934 54.2033 61.5 52V52C64.5292 50.4854 66.9854 48.0292 68.5 45V45C70.7033 40.5934 70.7033 35.4066 68.5 31V31C66.9854 27.9708 64.5292 25.5146 61.5 24V24C57.0934 21.7967 51.9066 21.7967 47.5 24V24Z" stroke="#E5EBF8" stroke-width="5"/>
<path d="M54.5 73H51.4375C49.5045 73 47.9375 71.433 47.9375 69.5V67.3749C47.9375 66.1189 47.2645 64.9592 46.174 64.336L42.3914 62.1745C41.1226 61.4495 39.5369 61.5891 38.4142 62.5246L36.3231 64.2672C34.8715 65.4769 32.7218 65.316 31.4665 63.9037L27.1613 59.0603C25.9301 57.6753 25.9919 55.5706 27.3023 54.2602L28.6537 52.9088C29.719 51.8435 29.9831 50.2161 29.3093 48.8687L28.1236 46.4973C27.5308 45.3115 26.3188 44.5625 24.9931 44.5625H23C21.067 44.5625 19.5 42.9955 19.5 41.0625V38" stroke="#E5EBF8" stroke-width="5"/>
<path d="M54.5 3H51.4375C49.5045 3 47.9375 4.567 47.9375 6.5V8.62512C47.9375 9.88112 47.2645 11.0408 46.174 11.664L42.3914 13.8255C41.1226 14.5505 39.5369 14.4109 38.4142 13.4754L36.3231 11.7328C34.8715 10.5231 32.7218 10.684 31.4665 12.0963L27.1613 16.9397C25.9301 18.3247 25.9919 20.4294 27.3023 21.7398L28.6537 23.0912C29.719 24.1565 29.9831 25.7839 29.3093 27.1313L28.1236 29.5027C27.5308 30.6885 26.3188 31.4375 24.9931 31.4375H23C21.067 31.4375 19.5 33.0045 19.5 34.9375V38" stroke="#E5EBF8" stroke-width="5"/>
<path d="M54.5 73H57.5625C59.4955 73 61.0625 71.433 61.0625 69.5V67.3749C61.0625 66.1189 61.7355 64.9592 62.826 64.336L66.6086 62.1745C67.8774 61.4495 69.4631 61.5891 70.5858 62.5246L72.6769 64.2672C74.1285 65.4769 76.2782 65.316 77.5335 63.9037L81.8387 59.0603C83.0699 57.6753 83.0081 55.5706 81.6977 54.2602L80.3463 52.9088C79.281 51.8435 79.0169 50.2161 79.6907 48.8687L80.8764 46.4973C81.4692 45.3115 82.6812 44.5625 84.0069 44.5625H86C87.933 44.5625 89.5 42.9955 89.5 41.0625V38" stroke="#E5EBF8" stroke-width="5"/>
<path d="M54.5 3H57.5625C59.4955 3 61.0625 4.567 61.0625 6.5V8.62512C61.0625 9.88112 61.7355 11.0408 62.826 11.664L66.6086 13.8255C67.8774 14.5505 69.4631 14.4109 70.5858 13.4754L72.6769 11.7328C74.1285 10.5231 76.2782 10.684 77.5335 12.0963L81.8387 16.9397C83.0699 18.3247 83.0081 20.4294 81.6977 21.7398L80.3463 23.0912C79.281 24.1565 79.0169 25.7839 79.6907 27.1313L80.8764 29.5027C81.4692 30.6885 82.6812 31.4375 84.0069 31.4375H86C87.933 31.4375 89.5 33.0045 89.5 34.9375V38" stroke="#E5EBF8" stroke-width="5"/>
<path d="M19.5 3H13.9497C13.0215 3 12.1313 3.36875 11.4749 4.02513L10.0251 5.47487C9.36875 6.13125 9 7.02149 9 7.94975V29.5503C9 30.4785 8.63125 31.3687 7.97487 32.0251L4.47487 35.5251C3.10804 36.892 3.10804 39.108 4.47487 40.4749L7.97488 43.9749C8.63125 44.6313 9 45.5215 9 46.4497V68.0503C9 68.9785 9.36875 69.8687 10.0251 70.5251L11.4749 71.9749C12.1313 72.6313 13.0215 73 13.9497 73H19.5" stroke="#E5EBF8" stroke-width="5"/>
<path d="M89.5 3H95.0503C95.9785 3 96.8687 3.36875 97.5251 4.02513L98.9749 5.47487C99.6313 6.13125 100 7.02149 100 7.94975V29.5503C100 30.4785 100.369 31.3687 101.025 32.0251L104.525 35.5251C105.892 36.892 105.892 39.108 104.525 40.4749L101.025 43.9749C100.369 44.6313 100 45.5215 100 46.4497V68.0503C100 68.9785 99.6313 69.8687 98.9749 70.5251L97.5251 71.9749C96.8687 72.6313 95.9785 73 95.0503 73H89.5" stroke="#E5EBF8" stroke-width="5"/>
</svg>
