<svg width="1290" height="794" viewBox="0 0 1290 794" fill="none" xmlns="http://www.w3.org/2000/svg">
<g filter="url(#filter0_d_197_220)">
<path d="M1 18.0282C1 8.07149 9.07149 0 19.0282 0H1262.97C1272.93 0 1281 8.07149 1281 18.0282V766.114C1281 776.071 1272.93 784.142 1262.97 784.142H19.0282C9.0715 784.142 1 776.071 1 766.114V18.0282Z" fill="#1E1E1E"/>
</g>
<path d="M1 18.0282C1 8.07149 9.07149 0 19.0282 0H1262.97C1272.93 0 1281 8.07149 1281 18.0282V26.7459H1V18.0282Z" fill="#3C3C3C"/>
<rect x="1" y="26.7458" width="59.8331" height="740.376" fill="#333333"/>
<path d="M1 767.122H1281C1281 776.522 1273.38 784.142 1263.98 784.142H18.0201C8.62015 784.142 1 776.522 1 767.122Z" fill="#3C3C3C"/>
<rect x="287" y="26.2996" width="994" height="45.5184" fill="#252526"/>
<rect x="61" y="26.2996" width="213" height="45.5184" fill="#1E1E1E"/>
<rect x="61" y="390.447" width="3" height="45.5184" fill="#98ADE3"/>
<rect x="1" y="30.3457" width="3" height="53.6106" fill="#98ADE3"/>
<path d="M42.9055 51.6079C42.889 51.5593 42.8755 51.5123 42.856 51.4652C42.7849 51.3006 42.6853 51.15 42.562 51.0207L33.562 41.917C33.4341 41.7922 33.2853 41.6915 33.1225 41.6196C33.0775 41.5983 33.0295 41.5862 32.9815 41.5695C32.856 41.5263 32.7253 41.5003 32.593 41.4921C32.56 41.4891 32.5315 41.4724 32.5 41.4724H22C20.3455 41.4724 19 42.8334 19 44.507V68.7835C19 70.457 20.3455 71.818 22 71.818H40C41.6545 71.818 43 70.457 43 68.7835V52.0934C43 52.0615 42.9835 52.0327 42.9805 51.9993C42.9728 51.866 42.9476 51.7344 42.9055 51.6079ZM37.879 50.5761H34V46.6524L37.879 50.5761ZM22 68.7835V44.507H31V52.0934C31 52.4958 31.158 52.8817 31.4393 53.1663C31.7206 53.4508 32.1022 53.6107 32.5 53.6107H40L40.003 68.7835H22Z" fill="white"/>
<path d="M28.8294 123.059C31.6759 123.058 34.4404 122.095 36.6826 120.321L43.7324 127.452L46 125.158L38.9502 118.027C40.7047 115.759 41.6582 112.962 41.6588 110.082C41.6588 102.928 35.9032 97.106 28.8294 97.106C21.7556 97.106 16 102.928 16 110.082C16 117.237 21.7556 123.059 28.8294 123.059ZM28.8294 100.35C34.136 100.35 38.4515 104.715 38.4515 110.082C38.4515 115.45 34.136 119.815 28.8294 119.815C23.5229 119.815 19.2074 115.45 19.2074 110.082C19.2074 104.715 23.5229 100.35 28.8294 100.35Z" fill="#9A9A9A"/>
<path d="M31.1343 173.982C34.4433 173.982 37.1343 171.26 37.1343 167.912C37.1343 164.565 34.4433 161.843 31.1343 161.843C27.8253 161.843 25.1343 164.565 25.1343 167.912C25.1343 171.26 27.8253 173.982 31.1343 173.982ZM31.1343 164.878C32.7603 164.878 34.1343 166.268 34.1343 167.912C34.1343 169.557 32.7603 170.947 31.1343 170.947C29.5083 170.947 28.1343 169.557 28.1343 167.912C28.1343 166.268 29.5083 164.878 31.1343 164.878Z" fill="#9A9A9A"/>
<path d="M17.4017 174.188L18.9017 176.813C19.6982 178.204 21.6152 178.726 22.9967 177.921L23.7902 177.456C24.6581 178.147 25.6149 178.714 26.6342 179.143V180.051C26.6342 181.724 27.9797 183.085 29.6342 183.085H32.6342C34.2887 183.085 35.6342 181.724 35.6342 180.051V179.143C36.6533 178.714 37.61 178.147 38.4782 177.458L39.2717 177.922C40.6562 178.726 42.5687 178.207 43.3682 176.813L44.8667 174.19C45.2643 173.493 45.3721 172.665 45.1665 171.887C44.9609 171.11 44.4587 170.447 43.7702 170.044L43.0127 169.601C43.1738 168.482 43.1738 167.346 43.0127 166.227L43.7702 165.784C44.4584 165.381 44.9603 164.718 45.1659 163.941C45.3714 163.163 45.2639 162.336 44.8667 161.639L43.3682 159.015C42.5717 157.619 40.6562 157.096 39.2717 157.905L38.4782 158.369C37.6104 157.678 36.6536 157.111 35.6342 156.682V155.774C35.6342 154.101 34.2887 152.74 32.6342 152.74H29.6342C27.9797 152.74 26.6342 154.101 26.6342 155.774V156.682C25.6152 157.111 24.6585 157.678 23.7902 158.367L22.9967 157.903C21.6107 157.097 19.6967 157.619 18.9002 159.014L17.4017 161.637C17.0042 162.334 16.8964 163.162 17.102 163.939C17.3076 164.716 17.8098 165.379 18.4982 165.782L19.2557 166.225C19.0941 167.344 19.0941 168.48 19.2557 169.598L18.4982 170.041C17.81 170.445 17.308 171.108 17.1025 171.885C16.8969 172.663 17.0046 173.491 17.4017 174.188ZM22.3907 170.003C22.2214 169.32 22.1352 168.617 22.1342 167.913C22.1342 167.212 22.2212 166.508 22.3892 165.822C22.4684 165.502 22.4423 165.165 22.3151 164.862C22.1879 164.558 21.9664 164.305 21.6842 164.141L19.9997 163.154L21.4967 160.531L23.2142 161.535C23.4943 161.699 23.8194 161.767 24.1407 161.728C24.4621 161.689 24.7622 161.546 24.9962 161.32C26.011 160.344 27.2347 159.617 28.5722 159.197C28.8795 159.102 29.1485 158.91 29.3397 158.649C29.5309 158.388 29.6341 158.072 29.6342 157.747V155.774H32.6342V157.747C32.6344 158.072 32.7376 158.388 32.9288 158.649C33.12 158.91 33.389 159.102 33.6962 159.197C35.0335 159.618 36.2571 160.344 37.2722 161.32C37.5065 161.546 37.8066 161.689 38.1278 161.727C38.449 161.766 38.774 161.699 39.0542 161.535L40.7702 160.533L42.2702 163.156L40.5842 164.141C40.3022 164.305 40.0809 164.559 39.9537 164.862C39.8265 165.165 39.8004 165.502 39.8792 165.822C40.0472 166.508 40.1342 167.212 40.1342 167.913C40.1342 168.612 40.0472 169.316 39.8777 170.003C39.799 170.323 39.8254 170.66 39.9529 170.964C40.0803 171.267 40.302 171.52 40.5842 171.685L42.2687 172.669L40.7717 175.293L39.0542 174.29C38.7742 174.126 38.4491 174.058 38.1277 174.097C37.8063 174.135 37.5061 174.279 37.2722 174.505C36.2575 175.481 35.0337 176.208 33.6962 176.628C33.389 176.723 33.12 176.915 32.9288 177.176C32.7376 177.437 32.6344 177.753 32.6342 178.078L32.6372 180.051H29.6342V178.078C29.6341 177.753 29.5309 177.437 29.3397 177.176C29.1485 176.915 28.8795 176.723 28.5722 176.628C27.235 176.207 26.0114 175.481 24.9962 174.505C24.7627 174.278 24.4623 174.134 24.1407 174.096C23.8191 174.057 23.4938 174.126 23.2142 174.291L21.4982 175.296L19.9982 172.672L21.6842 171.685C21.9665 171.52 22.1882 171.267 22.3156 170.964C22.4431 170.66 22.4695 170.323 22.3907 170.003Z" fill="#9A9A9A"/>
<path opacity="0.4" d="M264 43.3606L262.133 41.4724L257 46.6649L251.867 41.4724L250 43.3606L255.133 48.5531L250 53.7455L251.867 55.6337L257 50.4412L262.133 55.6337L264 53.7455L258.867 48.5531L264 43.3606Z" fill="#9A9A9A"/>
<rect opacity="0.4" x="74" y="46" width="94" height="6" fill="#9A9A9A"/>
<rect opacity="0.4" x="173" y="46" width="26" height="6" fill="#9A9A9A"/>
<rect opacity="0.4" x="204" y="46" width="12" height="6" fill="#9A9A9A"/>
<path d="M78.56 127.283V124.467L86.24 122.547V145.267H83.52V125.811L78.56 127.283Z" fill="white" fill-opacity="0.55"/>
<path d="M74.64 215.062L85.232 203.766C85.7227 203.233 86.1387 202.71 86.48 202.198C86.8427 201.665 87.1093 201.132 87.28 200.598C87.472 200.044 87.568 199.468 87.568 198.87C87.568 198.38 87.472 197.9 87.28 197.43C87.088 196.961 86.8 196.534 86.416 196.15C86.0533 195.766 85.6053 195.457 85.072 195.222C84.5387 194.988 83.9307 194.87 83.248 194.87C82.288 194.87 81.456 195.094 80.752 195.542C80.0693 195.969 79.5467 196.598 79.184 197.43C78.8213 198.241 78.64 199.212 78.64 200.342H75.92C75.92 198.742 76.208 197.345 76.784 196.15C77.36 194.934 78.192 193.996 79.28 193.334C80.3893 192.652 81.712 192.31 83.248 192.31C84.4853 192.31 85.552 192.524 86.448 192.95C87.344 193.356 88.08 193.889 88.656 194.55C89.232 195.19 89.6587 195.884 89.936 196.63C90.2133 197.377 90.352 198.092 90.352 198.774C90.352 199.926 90.0747 201.068 89.52 202.198C88.9653 203.329 88.2507 204.342 87.376 205.238L80.24 212.502H90.448V215.062H74.64Z" fill="white" fill-opacity="0.55"/>
<path d="M82.096 273.817V272.057C82.8213 272.057 83.4613 271.961 84.016 271.769C84.5707 271.556 85.04 271.279 85.424 270.937C85.808 270.575 86.096 270.159 86.288 269.689C86.5013 269.22 86.608 268.719 86.608 268.185C86.608 267.481 86.48 266.863 86.224 266.329C85.968 265.775 85.584 265.348 85.072 265.049C84.5813 264.751 83.9627 264.601 83.216 264.601C82.1707 264.601 81.2853 264.932 80.56 265.593C79.8347 266.233 79.472 267.044 79.472 268.025H76.88C76.88 266.852 77.1467 265.828 77.68 264.953C78.2347 264.079 78.9813 263.396 79.92 262.905C80.88 262.393 81.968 262.137 83.184 262.137C84.464 262.137 85.5627 262.415 86.48 262.969C87.4187 263.524 88.1333 264.249 88.624 265.145C89.136 266.041 89.392 267.023 89.392 268.089C89.392 269.135 89.0827 270.095 88.464 270.969C87.8453 271.844 86.992 272.537 85.904 273.049C84.816 273.561 83.5467 273.817 82.096 273.817ZM83.056 285.177C81.968 285.177 80.9867 285.017 80.112 284.697C79.2373 284.377 78.4907 283.94 77.872 283.385C77.2533 282.809 76.7733 282.148 76.432 281.401C76.0907 280.633 75.92 279.812 75.92 278.937H78.672C78.672 279.641 78.8533 280.271 79.216 280.825C79.6 281.38 80.1227 281.817 80.784 282.137C81.4453 282.457 82.2027 282.617 83.056 282.617C83.9093 282.617 84.6453 282.457 85.264 282.137C85.904 281.796 86.3947 281.327 86.736 280.729C87.0773 280.132 87.248 279.428 87.248 278.617C87.248 277.935 87.1093 277.337 86.832 276.825C86.576 276.292 86.2133 275.855 85.744 275.513C85.2747 275.151 84.7307 274.884 84.112 274.713C83.4933 274.543 82.8213 274.457 82.096 274.457V272.697C83.184 272.697 84.1973 272.815 85.136 273.049C86.096 273.284 86.9387 273.657 87.664 274.169C88.4107 274.66 88.9867 275.3 89.392 276.089C89.8187 276.879 90.032 277.828 90.032 278.937C90.032 280.196 89.7227 281.295 89.104 282.233C88.5067 283.172 87.6853 283.897 86.64 284.409C85.5947 284.921 84.4 285.177 83.056 285.177Z" fill="white" fill-opacity="0.55"/>
<path d="M74.64 350.172L87.056 332.252H88.176V354.652H85.456V349.02V348.668V338.3L79.12 347.772H86.576H87.12H91.696V350.172H74.64Z" fill="white" fill-opacity="0.55"/>
<path d="M90.768 417.087C90.768 418.367 90.5653 419.487 90.16 420.447C89.7547 421.407 89.1893 422.207 88.464 422.847C87.7387 423.487 86.9067 423.967 85.968 424.287C85.0293 424.607 84.016 424.767 82.928 424.767C81.5627 424.767 80.368 424.554 79.344 424.127C78.3413 423.701 77.4773 423.135 76.752 422.431C76.048 421.706 75.4507 420.917 74.96 420.063L77.264 418.495C77.6053 419.135 78.0533 419.743 78.608 420.319C79.184 420.874 79.8453 421.333 80.592 421.695C81.3387 422.037 82.1173 422.207 82.928 422.207C83.9947 422.207 84.9013 421.994 85.648 421.567C86.3947 421.141 86.96 420.543 87.344 419.775C87.7493 419.007 87.952 418.111 87.952 417.087C87.952 416.063 87.728 415.167 87.28 414.399C86.8533 413.631 86.256 413.034 85.488 412.607C84.7413 412.181 83.888 411.967 82.928 411.967C82.224 411.967 81.5733 412.031 80.976 412.159C80.4 412.266 79.8133 412.469 79.216 412.767C78.64 413.045 77.968 413.45 77.2 413.983L80.144 402.047H90.704V404.447H82.256L80.752 410.367C81.2853 410.09 81.8293 409.887 82.384 409.759C82.96 409.61 83.5253 409.535 84.08 409.535C85.36 409.535 86.5013 409.855 87.504 410.495C88.528 411.135 89.328 412.021 89.904 413.151C90.48 414.282 90.768 415.594 90.768 417.087Z" fill="white" fill-opacity="0.85"/>
<defs>
<filter id="filter0_d_197_220" x="0.192489" y="0" width="1289.62" height="793.757" filterUnits="userSpaceOnUse" color-interpolation-filters="sRGB">
<feFlood flood-opacity="0" result="BackgroundImageFix"/>
<feColorMatrix in="SourceAlpha" type="matrix" values="0 0 0 0 0 0 0 0 0 0 0 0 0 0 0 0 0 0 127 0" result="hardAlpha"/>
<feOffset dx="4" dy="4.80751"/>
<feGaussianBlur stdDeviation="2.40376"/>
<feComposite in2="hardAlpha" operator="out"/>
<feColorMatrix type="matrix" values="0 0 0 0 0 0 0 0 0 0 0 0 0 0 0 0 0 0 0.25 0"/>
<feBlend mode="normal" in2="BackgroundImageFix" result="effect1_dropShadow_197_220"/>
<feBlend mode="normal" in="SourceGraphic" in2="effect1_dropShadow_197_220" result="shape"/>
</filter>
</defs>
</svg>
