<svg width="195" height="195" viewBox="0 0 195 195" fill="none" xmlns="http://www.w3.org/2000/svg">
<path d="M71.4699 194.087C68.8165 193.376 66.5286 191.995 64.5446 190.137L44.7646 169.822C41.769 166.914 43.7265 166.672 44.8838 166.598C50.0974 166.284 51.0784 166.174 56.7853 164.675C57.4215 164.462 58.0818 164.815 58.5263 165.318L73.6663 180.988C74.287 181.528 75.1747 181.766 75.7987 181.559L157.403 159.491C158.21 159.334 158.749 158.711 158.988 157.821L180.913 75.9943C181.149 75.1139 180.993 74.305 180.373 73.7653L120.689 14.0259C120.081 13.4792 119.193 13.2414 118.557 13.4546L36.983 35.3338C36.1853 35.4934 35.5872 36.2974 35.4006 36.994L13.4777 118.811C13.2884 119.518 13.4044 120.513 14.0154 121.05L30.3139 137.414C39.3335 145.513 47.5616 141.051 49.2206 134.859L70.8558 54.1155C71.1409 53.0513 72.3067 52.2127 73.5514 52.5462L82.5828 54.9662C83.6249 55.2454 84.4671 56.425 84.1327 57.673L62.4949 138.426C58.7387 152.445 48.9449 158.582 35.668 155.025C31.5962 153.934 28.412 153.08 20.5731 146.21L4.8479 130.601C2.93828 128.676 1.56698 126.281 0.871074 123.656C0.175163 121.031 0.179018 118.268 0.88225 115.644L22.8077 33.8168C24.2335 28.4958 28.393 24.2806 33.7181 22.856L115.293 0.779958C117.914 0.165189 120.645 0.207861 123.243 0.904192C125.842 1.60052 128.228 2.929 130.191 4.77184L189.808 64.6802C193.72 68.5695 195.202 74.3068 193.777 79.6277L171.851 161.455C170.428 166.766 166.268 170.981 160.938 172.425L79.3563 194.489C76.7457 194.93 73.9497 194.751 71.4699 194.087ZM108.315 143.653C77.3416 135.353 74.7788 119.445 78.0087 107.39C78.2939 106.326 79.4693 105.49 80.7044 105.821L89.9095 108.288C90.9708 108.572 91.6596 109.513 91.3719 110.587C90.2732 120.361 93.0963 126.074 111.873 131.105C126.732 135.087 134.027 133.412 136.166 125.431C137.402 120.816 136.519 116.971 113.96 108.458C95.19 101.355 84.3062 93.8455 88.4409 78.4147C92.2904 64.048 106.606 58.7488 126.792 64.1575C149.438 70.2254 158.495 81.0409 155.344 98.4358C155.173 99.0056 154.836 99.5112 154.376 99.8873C153.925 100.14 153.308 100.358 152.778 100.216L143.582 97.7522C143.13 97.6207 142.735 97.342 142.459 96.9601C142.183 96.5782 142.042 96.1149 142.058 95.6433C142.549 85.2813 137.919 80.6396 123.417 76.7537C107.12 72.3869 103.649 77.5436 102.508 81.8004C101.132 86.9376 102.991 89.1466 124.199 97.8779C145.208 106.545 154.38 113.379 150.287 128.655C145.908 144.227 130.806 149.679 108.315 143.653Z" fill="#F2F6FF"/>
</svg>
