<svg width="246" height="246" viewBox="0 0 246 246" fill="none" xmlns="http://www.w3.org/2000/svg">
<path d="M97.7234 112.752L144.384 125.254C144.384 125.254 170.491 132.7 177.392 106.944L188.805 64.3484C188.805 64.3484 199.691 39.6369 148.179 25.8343C98.8663 12.621 96.2105 34.8232 96.2105 34.8232L90.3387 56.9956L137.376 69.5993L135.594 76.2512L69.8728 58.6412C69.8728 58.6412 39.2757 46.6065 25.9469 96.3502C12.6182 146.094 40.6375 151.707 40.6375 151.707L57.0678 156.109L63.2527 133.027C63.2527 133.027 69.7358 105.252 97.7234 112.752ZM113.701 50.7067C111.457 50.1052 109.543 48.6368 108.381 46.6244C107.219 44.612 106.904 42.2204 107.506 39.9759C108.107 37.7313 109.576 35.8176 111.588 34.6557C113.6 33.4939 115.992 33.179 118.237 33.7804C120.481 34.3819 122.395 35.8503 123.557 37.8627C124.719 39.8751 125.033 42.2667 124.432 44.5112C123.831 46.7558 122.362 48.6695 120.35 49.8314C118.337 50.9932 115.946 51.3081 113.701 50.7067Z" fill="#F2F6FF"/>
<path d="M205.338 93.5171L188.907 89.1146L182.722 112.197C182.722 112.197 176.239 139.971 148.252 132.472L101.591 119.97C101.591 119.97 75.4874 112.513 68.5832 138.28L57.1697 180.875C57.1697 180.875 46.2844 205.587 97.7963 219.39C147.098 232.6 149.754 210.398 149.754 210.398L155.623 188.236L108.585 175.632L110.367 168.981L176.099 186.593C176.099 186.593 206.696 198.628 220.025 148.884C233.354 99.1406 205.338 93.5171 205.338 93.5171ZM132.271 194.528C134.516 195.129 136.429 196.598 137.591 198.61C138.753 200.623 139.068 203.014 138.466 205.259C137.865 207.503 136.397 209.417 134.384 210.579C132.372 211.741 129.98 212.056 127.736 211.454C125.491 210.853 123.577 209.384 122.416 207.372C121.254 205.359 120.939 202.968 121.54 200.723C122.142 198.479 123.61 196.565 125.623 195.403C127.635 194.241 130.026 193.926 132.271 194.528Z" fill="#F2F6FF"/>
</svg>
