<svg width="316" height="178" viewBox="0 0 316 178" fill="none" xmlns="http://www.w3.org/2000/svg">
<path d="M0 160C0 169.941 8.05887 178 18 178H298C307.941 178 316 169.941 316 160V27H0V160Z" fill="#1E1E1E"/>
<path d="M0 18.0282C0 8.07149 8.07149 0 18.0282 0H297.972C307.928 0 316 8.07149 316 18.0282V27H0V18.0282Z" fill="#3C3C3C"/>
<path opacity="0.4" d="M300.494 9.97527L298.627 8.27344L293.494 12.9535L288.36 8.27344L286.494 9.97527L291.627 14.6553L286.494 19.3354L288.36 21.0372L293.494 16.3572L298.627 21.0372L300.494 19.3354L295.36 14.6553L300.494 9.97527Z" fill="#9A9A9A"/>
<rect opacity="0.4" x="15.1245" y="11" width="127.485" height="6" fill="#9A9A9A"/>
<rect opacity="0.4" x="149.391" y="11" width="35.2618" height="6" fill="#9A9A9A"/>
<rect opacity="0.4" x="191.434" y="11" width="16.2747" height="6" fill="#9A9A9A"/>
</svg>
