<svg width="561" height="406" viewBox="0 0 561 406" fill="none" xmlns="http://www.w3.org/2000/svg">
<path d="M0 18.02C0 8.07889 8.05888 0.0200195 18 0.0200195H542.121C552.062 0.0200195 560.121 8.07889 560.121 18.02V200.02H0V18.02Z" fill="#333333"/>
<path d="M0 387.02C0 396.961 8.05888 405.02 18 405.02H542.121C552.062 405.02 560.121 396.961 560.121 387.02V200.02H0V387.02Z" fill="#1E1E1E"/>
<path d="M0 18.0482C0 8.09151 8.07149 0.0200195 18.0282 0.0200195H542.092C552.049 0.0200195 560.121 8.09151 560.121 18.0482V27.02H0V18.0482Z" fill="#3C3C3C"/>
<path opacity="0.4" d="M547.494 9.99529L545.627 8.29346L540.494 12.9735L535.36 8.29346L533.494 9.99529L538.627 14.6753L533.494 19.3554L535.36 21.0572L540.494 16.3772L545.627 21.0572L547.494 19.3554L542.36 14.6753L547.494 9.99529Z" fill="#9A9A9A"/>
<rect opacity="0.4" x="27.1245" y="11.02" width="127.485" height="6" fill="#9A9A9A"/>
<rect opacity="0.4" x="161.391" y="11.02" width="35.2618" height="6" fill="#9A9A9A"/>
<rect opacity="0.4" x="203.434" y="11.02" width="16.2747" height="6" fill="#9A9A9A"/>
</svg>
