<svg width="413" height="510" viewBox="0 0 413 510" fill="none" xmlns="http://www.w3.org/2000/svg">
<path d="M0 17.998C0 8.05692 8.05888 -0.00195312 18 -0.00195312H395C404.941 -0.00195312 413 8.05692 413 17.998V159.998H0V17.998Z" fill="#333333"/>
<path d="M0 491.998C0 501.939 8.05888 509.998 18 509.998H395C404.941 509.998 413 501.939 413 491.998V159.998H0V491.998Z" fill="#1E1E1E"/>
<path d="M0 18.0282C0 8.07149 8.07149 0 18.0282 0H394.972C404.928 0 413 8.07149 413 18.0282V27H0V18.0282Z" fill="#3C3C3C"/>
<path opacity="0.4" d="M397.495 9.97332L395.628 8.27148L390.495 12.9515L385.361 8.27148L383.495 9.97332L388.628 14.6534L383.495 19.3334L385.361 21.0353L390.495 16.3552L395.628 21.0353L397.495 19.3334L392.361 14.6534L397.495 9.97332Z" fill="#9A9A9A"/>
<rect opacity="0.4" x="27.1245" y="10.998" width="127.485" height="6" fill="#9A9A9A"/>
<rect opacity="0.4" x="160.391" y="10.998" width="35.2618" height="6" fill="#9A9A9A"/>
<rect opacity="0.4" x="202.434" y="10.998" width="16.2747" height="6" fill="#9A9A9A"/>
</svg>
