<svg width="1064" height="480" viewBox="0 0 1064 480" fill="none" xmlns="http://www.w3.org/2000/svg">
<path d="M0 18C0 8.05888 8.05888 0 18 0H1046C1055.94 0 1064 8.05888 1064 18V129H0V18Z" fill="#333333"/>
<path d="M0 462C0 471.941 8.05888 480 18 480H1046C1055.94 480 1064 471.941 1064 462V129H0V462Z" fill="#1E1E1E"/>
<path d="M0 18.0282C0 8.07149 8.07148 0 18.0282 0H1045.97C1055.93 0 1064 8.07149 1064 18.0282V27H0V18.0282Z" fill="#3C3C3C"/>
<path d="M1044 8.88817L1042.13 7L1037 12.1925L1031.87 7L1030 8.88817L1035.13 14.0806L1030 19.2731L1031.87 21.1613L1037 15.9688L1042.13 21.1613L1044 19.2731L1038.87 14.0806L1044 8.88817Z" fill="#9A9A9A"/>
<rect opacity="0.4" x="20" y="11" width="94" height="6" fill="#9A9A9A"/>
<rect opacity="0.4" x="119" y="11" width="26" height="6" fill="#9A9A9A"/>
<rect opacity="0.4" x="150" y="11" width="12" height="6" fill="#9A9A9A"/>
</svg>
