<svg width="100" height="100" viewBox="0 0 100 100" fill="none" xmlns="http://www.w3.org/2000/svg">
<path d="M0 10C0 4.47716 4.47715 0 10 0H90C95.5228 0 100 4.47715 100 10V90C100 95.5228 95.5229 100 90 100H10C4.47716 100 0 95.5229 0 90V10Z" fill="#626262"/>
<path d="M51 13C47.1543 13 43.3949 14.1421 40.1972 16.2819C36.9996 18.4217 34.5074 21.4631 33.0357 25.0214C31.564 28.5798 31.1789 32.4953 31.9292 36.2728C32.6794 40.0503 34.5313 43.5202 37.2507 46.2437C39.9701 48.9671 43.4347 50.8218 47.2066 51.5732C50.9784 52.3246 54.8881 51.9389 58.4411 50.465C61.9941 48.9911 65.0309 46.4951 67.1675 43.2927C69.3041 40.0903 70.4444 36.3252 70.4444 32.4737C70.4444 27.3089 68.3958 22.3557 64.7493 18.7037C61.1028 15.0517 56.157 13 51 13ZM51 44.1579C48.6926 44.1579 46.4369 43.4726 44.5183 42.1888C42.5998 40.9049 41.1044 39.08 40.2214 36.945C39.3384 34.81 39.1073 32.4607 39.5575 30.1942C40.0077 27.9277 41.1188 25.8458 42.7504 24.2117C44.382 22.5776 46.4608 21.4648 48.7239 21.014C50.9871 20.5631 53.3328 20.7945 55.4646 21.6789C57.5964 22.5632 59.4185 24.0608 60.7005 25.9823C61.9824 27.9037 62.6667 30.1628 62.6667 32.4737C62.6667 35.5725 61.4375 38.5445 59.2496 40.7357C57.0617 42.9269 54.0942 44.1579 51 44.1579ZM86 87V83.1053C86 75.8746 83.132 68.9401 78.0268 63.8273C72.9216 58.7145 65.9976 55.8421 58.7778 55.8421H43.2222C36.0024 55.8421 29.0784 58.7145 23.9732 63.8273C18.868 68.9401 16 75.8746 16 83.1053V87H23.7778V83.1053C23.7778 77.9405 25.8264 72.9873 29.4729 69.3353C33.1195 65.6833 38.0652 63.6316 43.2222 63.6316H58.7778C63.9348 63.6316 68.8805 65.6833 72.5271 69.3353C76.1736 72.9873 78.2222 77.9405 78.2222 83.1053V87H86Z" fill="#1E1E1E"/>
</svg>
