<svg width="31" height="36" viewBox="0 0 31 36" fill="none" xmlns="http://www.w3.org/2000/svg">
<path d="M29.1504 8.44444C27.3776 8.04976 25.7738 7.09664 24.5693 5.72186C23.3647 4.34709 22.6213 2.62133 22.4457 0.792229V0H16.31V24.6131C16.3113 25.7052 15.9731 26.7701 15.3433 27.6568C14.7136 28.5435 13.8242 29.2072 12.8013 29.5537C11.7783 29.9003 10.6735 29.9122 9.64347 29.5877C8.61343 29.2633 7.71032 28.619 7.06209 27.746C6.48133 26.9733 6.12571 26.0515 6.03544 25.0849C5.94517 24.1182 6.12385 23.1452 6.55128 22.276C6.97871 21.4068 7.63783 20.676 8.4541 20.1663C9.27038 19.6566 10.2112 19.3882 11.1703 19.3916C11.7007 19.3885 12.2285 19.4675 12.7353 19.6257V13.3239C12.1455 13.2499 11.5511 13.2198 10.9569 13.2338C8.76817 13.293 6.64401 13.9971 4.84451 15.2599C3.04502 16.5227 1.6483 18.2893 0.825382 20.3434C0.00246978 22.3976 -0.210916 24.6501 0.211356 26.8252C0.633628 29.0002 1.67323 31.0034 3.20285 32.5894C4.77053 34.2031 6.77663 35.3085 8.96626 35.7652C11.1559 36.2219 13.4302 36.0093 15.5002 35.1544C17.5702 34.2995 19.3425 32.841 20.5919 30.964C21.8412 29.0871 22.5112 26.8765 22.5168 24.6131V12.0095C24.9914 13.7991 27.9589 14.7564 31 14.7463V8.62449C30.4026 8.62699 29.8066 8.56665 29.2216 8.44444H29.1504Z" fill="#F2F6FF"/>
</svg>
