<svg width="55" height="55" viewBox="0 0 55 55" fill="none" xmlns="http://www.w3.org/2000/svg">
<path d="M0 5C0 2.23857 2.23858 0 5 0H50C52.7614 0 55 2.23858 55 5V50C55 52.7614 52.7614 55 50 55H5C2.23857 55 0 52.7614 0 50V5Z" fill="#5783EC"/>
<path d="M27.4749 28.614C22.3382 28.614 18.0688 24.3912 18.0688 19.3943C18.0688 14.2247 22.3382 10 27.4767 10C32.7898 10 36.8828 14.2229 36.8828 19.3943C36.8736 21.8478 35.8808 24.1974 34.1225 25.9265C32.3642 27.6557 29.9843 28.623 27.5058 28.6158L27.4749 28.614ZM27.4749 15.4307C25.3002 15.4307 23.6455 17.2397 23.6455 19.3961C23.6455 21.5489 25.3002 23.187 27.4767 23.187C29.7405 23.187 31.3079 21.5489 31.3079 19.3961C31.3097 17.2379 29.7405 15.4307 27.4749 15.4307ZM31.2206 36.2857L36.5355 41.3708C37.581 42.4886 37.581 44.1266 36.5355 45.1616C35.4045 46.2795 33.6608 46.2795 32.7898 45.1616L27.4767 39.9902L22.3382 45.1616C21.8163 45.6782 21.1181 45.9356 20.3326 45.9356C19.7235 45.9356 19.0271 45.6764 18.4161 45.1616C17.3706 44.1266 17.3706 42.4886 18.4161 41.369L23.8165 36.2839C21.8662 35.7122 19.9954 34.9026 18.247 33.8737C16.9396 33.1843 16.6796 31.4617 17.376 30.1675C18.247 28.875 19.8144 28.5312 21.209 29.3934C23.0975 30.5343 25.2671 31.1379 27.4794 31.1379C29.6918 31.1379 31.8614 30.5343 33.7499 29.3934C35.1445 28.5312 36.7973 28.875 37.581 30.1675C38.3665 31.4617 38.0156 33.1825 36.7955 33.8737C35.1427 34.9087 33.2262 35.6845 31.2224 36.2875L31.2206 36.2857Z" fill="#F2F6FF"/>
</svg>
