<svg width="21" height="36" viewBox="0 0 21 36" fill="none" xmlns="http://www.w3.org/2000/svg">
<path d="M10.4749 18.614C5.33819 18.614 1.06881 14.3912 1.06881 9.39432C1.06881 4.22465 5.33819 0 10.4767 0C15.7898 0 19.8828 4.22285 19.8828 9.39432C19.8736 11.8478 18.8808 14.1974 17.1225 15.9265C15.3642 17.6557 12.9843 18.623 10.5058 18.6158L10.4749 18.614ZM10.4749 5.43067C8.3002 5.43067 6.64555 7.23969 6.64555 9.39612C6.64555 11.5489 8.3002 13.187 10.4767 13.187C12.7405 13.187 14.3079 11.5489 14.3079 9.39612C14.3097 7.23789 12.7405 5.43067 10.4749 5.43067ZM14.2206 26.2857L19.5355 31.3708C20.581 32.4886 20.581 34.1266 19.5355 35.1616C18.4045 36.2795 16.6608 36.2795 15.7898 35.1616L10.4767 29.9902L5.33819 35.1616C4.81633 35.6782 4.1181 35.9356 3.3326 35.9356C2.72346 35.9356 2.02705 35.6764 1.4161 35.1616C0.37058 34.1266 0.37058 32.4886 1.4161 31.369L6.81647 26.2839C4.86621 25.7122 2.99537 24.9026 1.247 23.8737C-0.060359 23.1843 -0.320376 21.4617 0.376035 20.1675C1.247 18.875 2.81438 18.5312 4.20902 19.3934C6.0975 20.5343 8.26707 21.1379 10.4794 21.1379C12.6918 21.1379 14.8614 20.5343 16.7499 19.3934C18.1445 18.5312 19.7973 18.875 20.581 20.1675C21.3665 21.4617 21.0156 23.1825 19.7955 23.8737C18.1427 24.9087 16.2262 25.6845 14.2224 26.2875L14.2206 26.2857Z" fill="#F2F6FF"/>
</svg>
