<svg width="32" height="32" viewBox="0 0 32 32" fill="none" xmlns="http://www.w3.org/2000/svg">
<path d="M24.7714 17.3303C24.6152 17.1738 24.4296 17.0496 24.2254 16.9649C24.0211 16.8802 23.8021 16.8366 23.581 16.8366C23.3599 16.8366 23.1409 16.8802 22.9367 16.9649C22.7324 17.0496 22.5468 17.1738 22.3906 17.3303L19.7067 20.014C18.4625 19.6436 16.1406 18.8018 14.669 17.3303C13.1974 15.8587 12.3556 13.537 11.9852 12.2927L14.669 9.60899C14.8255 9.45277 14.9497 9.26722 15.0344 9.06297C15.1191 8.85872 15.1627 8.63977 15.1627 8.41864C15.1627 8.19752 15.1191 7.97857 15.0344 7.77432C14.9497 7.57007 14.8255 7.38452 14.669 7.2283L7.9341 0.493651C7.77787 0.337162 7.59232 0.213013 7.38806 0.128306C7.1838 0.0436002 6.96484 0 6.74371 0C6.52258 0 6.30361 0.0436002 6.09935 0.128306C5.89509 0.213013 5.70954 0.337162 5.55331 0.493651L0.987031 5.05974C0.347213 5.69953 -0.0131052 6.5784 0.000364603 7.47579C0.0390904 9.87333 0.673857 18.2007 7.23704 24.7636C13.8002 31.3265 22.128 31.9596 24.5273 32H24.5744C25.4634 32 26.3036 31.6498 26.9401 31.0134L31.5063 26.4473C31.6628 26.2911 31.787 26.1055 31.8717 25.9013C31.9564 25.697 32 25.4781 32 25.2569C32 25.0358 31.9564 24.8169 31.8717 24.6126C31.787 24.4084 31.6628 24.2228 31.5063 24.0666L24.7714 17.3303ZM24.5576 28.631C22.4563 28.5956 15.2667 28.0316 9.61783 22.3812C3.9504 16.714 3.4015 9.49956 3.36783 7.44044L6.74371 4.0647L11.0978 8.41864L8.92077 10.5956C8.72287 10.7934 8.57736 11.0373 8.4974 11.3054C8.41744 11.5735 8.40555 11.8573 8.46279 12.1311C8.5032 12.3247 9.49155 16.9161 12.2865 19.711C15.0815 22.5058 19.6731 23.4941 19.8667 23.5346C20.1404 23.5934 20.4245 23.5825 20.6928 23.5027C20.9612 23.423 21.2051 23.277 21.4023 23.0783L23.581 20.9013L27.9351 25.2553L24.5576 28.631Z" fill="#F2F6FF"/>
</svg>
