<svg width="55" height="55" viewBox="0 0 55 55" fill="none" xmlns="http://www.w3.org/2000/svg">
<path d="M0 5C0 2.23857 2.23858 0 5 0H50C52.7614 0 55 2.23858 55 5V50C55 52.7614 52.7614 55 50 55H5C2.23857 55 0 52.7614 0 50V5Z" fill="#5783EC"/>
<path d="M41.1504 18.4444C39.3776 18.0498 37.7738 17.0966 36.5693 15.7219C35.3647 14.3471 34.6213 12.6213 34.4457 10.7922V10H28.31V34.6131C28.3113 35.7052 27.9731 36.7701 27.3433 37.6568C26.7136 38.5435 25.8242 39.2072 24.8013 39.5537C23.7783 39.9003 22.6735 39.9122 21.6435 39.5877C20.6134 39.2633 19.7103 38.619 19.0621 37.746C18.4813 36.9733 18.1257 36.0515 18.0354 35.0849C17.9452 34.1182 18.1239 33.1452 18.5513 32.276C18.9787 31.4068 19.6378 30.676 20.4541 30.1663C21.2704 29.6566 22.2112 29.3882 23.1703 29.3916C23.7007 29.3885 24.2285 29.4675 24.7353 29.6257V23.3239C24.1455 23.2499 23.5511 23.2198 22.9569 23.2338C20.7682 23.293 18.644 23.9971 16.8445 25.2599C15.045 26.5227 13.6483 28.2893 12.8254 30.3434C12.0025 32.3976 11.7891 34.6501 12.2114 36.8252C12.6336 39.0002 13.6732 41.0034 15.2029 42.5894C16.7705 44.2031 18.7766 45.3085 20.9663 45.7652C23.1559 46.2219 25.4302 46.0093 27.5002 45.1544C29.5702 44.2995 31.3425 42.841 32.5919 40.964C33.8412 39.0871 34.5112 36.8765 34.5168 34.6131V22.0095C36.9914 23.7991 39.9589 24.7564 43 24.7463V18.6245C42.4026 18.627 41.8066 18.5666 41.2215 18.4444H41.1504Z" fill="#F2F6FF"/>
</svg>
