<svg width="55" height="55" viewBox="0 0 55 55" fill="none" xmlns="http://www.w3.org/2000/svg">
<path d="M0 5C0 2.23857 2.23858 0 5 0H50C52.7614 0 55 2.23858 55 5V50C55 52.7614 52.7614 55 50 55H5C2.23857 55 0 52.7614 0 50V5Z" fill="#5783EC"/>
<path d="M46.1058 17.5576C46.3783 16.659 46.1058 16 44.8174 16H40.5492C39.4632 16 38.9669 16.5701 38.6945 17.1962C38.6945 17.1962 36.5244 22.4505 33.4493 25.8574C32.4567 26.8488 32.0032 27.1618 31.4622 27.1618C31.1916 27.1618 30.7985 26.8488 30.7985 25.9502V17.5576C30.7985 16.4792 30.4851 16 29.5801 16H22.8733C22.196 16 21.7873 16.4986 21.7873 16.974C21.7873 17.9943 23.3248 18.23 23.4825 21.1055V27.3435C23.4825 28.7097 23.2353 28.959 22.6904 28.959C21.2443 28.959 17.7255 23.6853 15.6371 17.6484C15.2304 16.4754 14.8197 16.0019 13.7298 16.0019H9.46359C8.24328 16.0019 8 16.572 8 17.1981C8 18.3228 9.44607 23.8883 14.736 31.2489C18.2626 36.2752 23.2275 39 27.7506 39C30.4618 39 30.7965 38.3951 30.7965 37.3516V33.5524C30.7965 32.3427 31.0554 32.0992 31.9137 32.0992C32.5443 32.0992 33.6303 32.4161 36.1624 34.8375C39.0545 37.7091 39.5333 38.9981 41.1584 38.9981H45.4246C46.643 38.9981 47.2522 38.3932 46.9018 37.199C46.5184 36.0105 45.1366 34.281 43.3032 32.2345C42.3067 31.0673 40.8178 29.8112 40.3643 29.1832C39.7318 28.3735 39.9148 28.016 40.3643 27.2971C40.3663 27.299 45.5647 20.0292 46.1058 17.5576Z" fill="#F2F6FF"/>
</svg>
