<svg width="39" height="23" viewBox="0 0 39 23" fill="none" xmlns="http://www.w3.org/2000/svg">
<path d="M38.1058 1.55755C38.3783 0.658965 38.1058 0 36.8174 0H32.5492C31.4632 0 30.9669 0.570073 30.6944 1.19619C30.6944 1.19619 28.5244 6.45051 25.4493 9.85742C24.4567 10.8488 24.0032 11.1618 23.4622 11.1618C23.1916 11.1618 22.7985 10.8488 22.7985 9.95018V1.55755C22.7985 0.479248 22.4851 0 21.5801 0H14.8733C14.196 0 13.7873 0.498572 13.7873 0.973954C13.7873 1.99429 15.3248 2.23005 15.4825 5.10553V11.3435C15.4825 12.7097 15.2353 12.959 14.6904 12.959C13.2443 12.959 9.72546 7.68535 7.63712 1.64838C7.23035 0.475383 6.81969 0.00193323 5.72979 0.00193323H1.46359C0.243283 0.00193323 0 0.572005 0 1.19812C0 2.3228 1.44607 7.88825 6.736 15.2489C10.2626 20.2752 15.2275 23 19.7506 23C22.4618 23 22.7965 22.3951 22.7965 21.3516V17.5524C22.7965 16.3427 23.0554 16.0992 23.9137 16.0992C24.5443 16.0992 25.6303 16.4161 28.1624 18.8375C31.0545 21.7091 31.5333 22.9981 33.1584 22.9981H37.4246C38.643 22.9981 39.2522 22.3932 38.9018 21.199C38.5184 20.0105 37.1366 18.281 35.3032 16.2345C34.3067 15.0673 32.8178 13.8112 32.3643 13.1832C31.7318 12.3735 31.9148 12.016 32.3643 11.2971C32.3663 11.299 37.5647 4.02916 38.1058 1.55755Z" fill="#F2F6FF"/>
</svg>
